<?xml version="1.0" standalone="no"?>
<!DOCTYPE svg PUBLIC "-//W3C//DTD SVG 20010904//EN"
 "http://www.w3.org/TR/2001/REC-SVG-20010904/DTD/svg10.dtd">
<svg version="1.0" xmlns="http://www.w3.org/2000/svg"
 width="1000.000000pt" height="1000.000000pt" viewBox="0 0 1000.000000 1000.000000"
 preserveAspectRatio="xMidYMid meet">

<g transform="translate(0.000000,1000.000000) scale(0.100000,-0.100000)"
fill="#fff" stroke="none">
<path d="M5900 7865 c-120 -25 -197 -62 -221 -107 -54 -100 370 -123 561 -30
32 16 61 39 70 55 14 27 14 29 -12 52 -15 13 -50 28 -78 34 -68 15 -239 12
-320 -4z m324 -44 c138 -29 -169 -122 -356 -107 -89 7 -132 20 -125 39 5 15
81 44 162 62 61 14 267 18 319 6z"/>
<path d="M4170 7831 c0 -5 -21 -23 -48 -40 -56 -36 -97 -77 -107 -109 -4 -14
-26 -31 -60 -47 -98 -47 -190 -146 -258 -280 -14 -27 -35 -60 -46 -72 -25 -27
-26 -33 -5 -33 11 0 14 -5 9 -17 -4 -10 -11 -63 -16 -117 -4 -54 -14 -115 -20
-135 -15 -46 -61 -113 -96 -141 l-28 -21 33 6 c35 7 38 2 17 -35 -8 -15 -14
-53 -15 -92 0 -72 -11 -112 -40 -143 -21 -24 -37 -85 -21 -85 6 0 11 4 11 9 0
5 12 23 26 40 28 34 62 43 48 14 -4 -10 -10 -64 -14 -120 -6 -87 -10 -108 -33
-142 -30 -45 -24 -52 16 -21 14 11 28 20 31 20 3 0 6 -19 6 -41 0 -37 -6 -47
-50 -90 -50 -49 -57 -63 -41 -87 6 -11 9 -9 13 6 5 20 77 72 98 72 6 0 10 -30
10 -72 0 -90 -24 -144 -77 -177 l-38 -22 47 4 c47 4 47 4 41 -23 -7 -36 10
-66 64 -117 39 -36 45 -47 41 -73 -6 -37 5 -39 20 -5 17 36 16 37 -28 91 -43
52 -50 86 -24 122 21 31 32 28 40 -14 7 -40 48 -94 71 -94 12 0 12 3 -2 17
-47 47 -42 103 15 157 22 21 40 44 40 53 0 25 24 9 47 -33 42 -73 83 -214 83
-285 0 -90 -28 -141 -140 -254 -49 -49 -131 -133 -182 -185 -199 -202 -272
-359 -298 -644 -17 -195 -47 -282 -125 -365 -113 -120 -300 -122 -407 -3 -45
49 -58 93 -58 193 0 134 55 300 138 413 20 28 105 124 189 213 163 174 217
246 268 357 43 93 59 177 53 279 -10 151 -63 258 -200 402 -85 89 -108 125
-70 110 36 -15 76 -24 81 -20 8 9 -29 32 -124 79 -86 43 -162 67 -251 80 l-42
6 97 -98 c53 -53 119 -132 147 -174 49 -77 72 -98 60 -55 -3 12 -9 48 -13 80
-7 65 6 75 42 33 70 -83 134 -166 152 -197 106 -185 93 -414 -32 -604 -22 -33
-111 -133 -198 -223 -225 -232 -304 -344 -359 -508 -33 -98 -33 -287 -1 -356
52 -113 159 -185 287 -195 179 -14 333 77 410 241 42 90 62 171 76 316 12 123
40 219 85 296 29 49 92 124 105 124 4 0 15 -39 25 -87 21 -99 21 -98 -59 -278
-19 -44 -42 -107 -50 -140 -25 -96 -46 -333 -46 -511 0 -164 0 -165 -24 -174
-33 -12 -35 -34 -37 -330 -2 -272 1 -297 58 -510 34 -129 30 -265 -10 -354
-33 -71 -33 -94 -5 -149 17 -33 23 -64 26 -144 2 -57 8 -103 12 -103 5 0 12
30 15 68 9 78 29 136 47 130 7 -3 18 -28 25 -57 6 -29 19 -59 30 -67 48 -36
166 -45 222 -16 47 23 49 37 8 57 -32 15 -67 67 -67 101 0 31 -43 142 -78 199
-35 57 -37 66 -40 160 -7 178 15 433 58 680 42 242 47 304 29 333 -10 15 -7
27 14 63 14 24 31 67 38 94 7 28 38 109 69 180 91 209 143 347 143 385 0 44
-73 172 -117 204 -17 13 -55 36 -84 52 -55 29 -103 80 -121 128 -16 40 6 33
50 -18 24 -27 66 -57 114 -80 83 -42 116 -76 166 -170 47 -90 167 -262 292
-421 130 -164 150 -197 172 -287 17 -66 17 -66 -6 -97 -21 -28 -23 -46 -31
-213 -10 -210 -6 -294 28 -616 28 -269 30 -335 10 -351 -8 -7 -16 -46 -20
-108 -4 -55 -16 -119 -28 -150 -11 -30 -17 -57 -14 -60 9 -9 13 -2 43 73 43
106 57 95 63 -51 3 -66 10 -129 17 -140 16 -27 61 -69 103 -94 35 -21 114 -29
124 -13 3 5 -5 24 -17 43 -21 32 -22 46 -23 219 0 118 -7 239 -19 335 -32 250
-20 887 17 933 6 7 16 54 23 105 7 50 21 127 31 170 16 72 17 82 2 140 -35
134 -205 586 -260 690 -21 38 -48 70 -81 94 -27 20 -57 49 -67 65 -15 25 -19
27 -30 13 -7 -8 -16 -15 -21 -15 -20 0 -42 55 -50 125 -15 133 -58 306 -97
385 -20 41 -82 143 -138 225 -109 162 -150 233 -138 243 4 4 9 2 11 -4 2 -7
29 -45 59 -85 85 -113 259 -397 282 -461 19 -52 48 -223 54 -327 4 -66 28 -66
28 0 0 58 9 56 29 -6 15 -45 69 -125 84 -125 6 0 7 25 3 63 -23 231 -30 259
-103 435 -19 47 -59 157 -90 246 -30 88 -76 202 -101 251 l-46 90 -8 180 c-18
436 -28 592 -39 623 -16 45 -4 52 20 12 23 -38 28 -86 36 -335 3 -99 10 -238
16 -309 9 -126 11 -132 59 -230 27 -56 65 -155 85 -221 20 -66 39 -127 42
-135 9 -24 19 24 27 125 5 61 15 107 31 141 12 29 26 66 30 83 6 29 5 31 -24
31 -30 0 -92 42 -79 55 3 4 20 -1 37 -9 16 -9 54 -16 84 -16 108 0 187 74 206
191 12 68 9 72 -140 231 -160 170 -207 238 -164 238 8 0 15 4 15 9 0 5 -7 14
-15 21 -19 16 -20 100 -1 126 19 25 46 10 64 -37 13 -37 13 -35 -4 116 -5 41
11 85 33 92 8 3 10 -6 6 -30 -3 -19 0 -43 6 -53 9 -16 10 -15 11 14 0 18 14
65 31 105 26 58 33 89 37 165 4 93 12 107 39 75 13 -17 14 -16 8 7 -4 14 -10
66 -15 115 -5 50 -9 91 -9 91 -1 1 -14 18 -30 38 -25 31 -28 42 -20 63 11 29
1 153 -13 153 -13 0 -28 -46 -28 -86 0 -46 -23 -54 -58 -21 -46 44 -138 78
-225 85 -43 2 -80 9 -83 13 -7 13 14 49 57 96 39 42 48 63 29 63 -5 0 -10 -4
-10 -9z"/>
<path d="M6010 7613 c-99 -16 -227 -79 -286 -139 -42 -44 -73 -114 -74 -168
-1 -19 -9 -44 -35 -111 -6 -16 -1 -13 24 10 l32 29 -2 -109 c-2 -93 1 -117 20
-158 12 -29 21 -69 21 -98 0 -31 4 -48 10 -44 6 3 10 24 10 45 0 45 14 60 29
31 16 -28 13 -96 -4 -138 -17 -41 -20 -83 -5 -83 6 0 10 11 10 24 0 29 26 58
49 54 27 -5 28 -114 1 -150 -17 -23 -18 -28 -5 -28 8 0 15 -6 15 -12 0 -7 -80
-93 -177 -191 l-178 -177 2 -49 c4 -92 51 -166 128 -202 49 -23 106 -24 146
-3 17 8 34 13 37 9 12 -11 -48 -55 -74 -55 -35 0 -38 -19 -13 -81 16 -41 22
-83 26 -176 3 -68 8 -123 12 -123 4 0 22 42 41 93 38 104 77 186 126 268 49
82 61 124 79 272 51 433 71 557 93 579 18 19 22 20 22 6 0 -9 -4 -19 -9 -22
-13 -8 -18 -46 -41 -266 -11 -107 -27 -249 -36 -315 -8 -66 -17 -138 -20 -160
-2 -22 -16 -58 -29 -80 -49 -81 -126 -237 -181 -367 -31 -73 -71 -162 -89
-198 -55 -112 -103 -251 -122 -358 -10 -57 -16 -105 -13 -107 18 -11 110 118
110 152 0 7 5 13 10 13 6 0 10 -28 10 -62 1 -72 14 -62 24 19 3 28 20 90 36
137 17 47 30 97 30 110 0 63 88 200 263 411 55 66 109 135 121 152 11 18 24
33 28 33 16 0 -8 -43 -59 -106 -209 -259 -311 -415 -322 -496 -5 -29 -17 -75
-28 -103 -11 -27 -28 -85 -37 -127 -10 -43 -26 -88 -37 -100 -19 -23 -19 -23
-35 -3 l-15 20 -15 -20 c-32 -44 -67 -75 -83 -75 -10 0 -25 -8 -33 -17 -46
-54 -195 -352 -330 -659 -42 -96 -43 -102 -42 -199 1 -62 8 -129 20 -175 17
-65 19 -111 18 -360 -1 -332 -14 -484 -55 -651 -21 -86 -33 -175 -44 -312 -18
-232 -19 -241 -46 -278 -58 -82 79 -75 167 8 60 56 69 79 69 175 0 70 3 91 18
105 15 15 19 16 32 2 8 -8 19 -39 25 -69 9 -50 24 -80 34 -69 2 2 -5 45 -15
94 -13 61 -17 108 -13 147 5 48 2 63 -15 92 l-21 34 54 207 c80 298 99 423 98
630 0 186 -13 288 -38 316 -15 16 -15 22 0 66 29 86 71 145 221 308 80 88 188
216 238 285 128 174 196 240 271 264 37 11 74 32 101 57 50 46 61 49 41 12
-23 -45 -77 -90 -141 -118 -71 -31 -111 -68 -166 -151 l-40 -62 42 -168 c23
-93 54 -202 70 -243 17 -40 39 -111 49 -158 11 -46 29 -102 41 -125 20 -39 20
-43 5 -75 -21 -43 -20 -118 1 -296 21 -180 25 -718 5 -784 -7 -22 -33 -72 -59
-109 -27 -40 -56 -99 -69 -143 -25 -78 -63 -131 -97 -131 -26 0 -18 -28 16
-54 23 -17 43 -21 100 -21 40 0 86 6 104 13 30 13 38 26 59 96 23 76 54 24 54
-90 0 -59 3 -74 15 -74 12 0 15 14 15 68 1 64 7 87 56 212 17 44 17 47 -6 119
-36 116 -30 174 35 391 66 221 72 255 84 521 10 213 8 242 -17 271 -13 15 -14
40 -6 175 21 371 8 514 -67 710 -21 57 -39 119 -39 139 0 20 15 68 32 107 29
63 33 83 33 157 0 131 -31 198 -155 330 -33 36 -73 85 -88 110 -24 40 -27 54
-26 135 0 104 23 171 93 274 41 60 61 75 61 46 0 -8 16 -33 36 -55 30 -33 36
-47 36 -82 -1 -26 -9 -52 -22 -70 -11 -15 -16 -28 -10 -28 17 0 60 51 66 79
17 74 27 80 50 25 19 -46 12 -75 -30 -122 -37 -42 -48 -65 -40 -87 9 -23 24
-18 24 8 0 14 21 42 61 79 58 54 61 58 55 92 l-7 36 48 -6 48 -5 -32 16 c-38
20 -59 61 -68 136 -8 65 2 78 39 54 21 -14 28 -14 46 -3 15 9 24 9 26 3 3 -6
20 -9 40 -7 30 4 39 10 50 38 9 22 21 34 33 34 27 0 51 27 51 55 0 15 11 32
30 45 21 15 30 30 30 49 0 16 9 40 20 54 11 14 20 39 20 55 0 23 8 36 30 52
17 12 30 30 30 40 0 10 11 25 25 34 14 10 30 28 35 42 8 19 17 24 43 24 33 0
67 24 67 48 0 6 15 15 34 22 23 7 38 21 47 42 7 17 23 41 36 54 15 15 23 35
23 58 0 25 8 43 30 64 22 22 30 40 30 66 0 19 5 38 10 41 6 3 10 21 10 40 0
19 4 45 10 59 18 49 -33 106 -94 106 -80 0 -355 -76 -577 -160 -73 -27 -133
-49 -135 -47 -1 1 -3 65 -5 142 l-4 140 25 -3 c25 -2 24 -2 -6 23 -19 14 -41
48 -54 82 -30 75 -53 114 -112 189 -99 126 -237 182 -388 157z"/>
</g>
</svg>
