<svg width="18" height="18" viewBox="0 0 18 18" fill="none" xmlns="http://www.w3.org/2000/svg">
<path fill-rule="evenodd" clip-rule="evenodd" d="M4.38047 7.39225C5.72096 10.3111 8.10634 12.6318 11.0716 13.8892L11.081 13.8932L11.6538 14.1485C12.3834 14.4736 13.2408 14.2427 13.7085 13.5954L14.6643 12.2726C14.7226 12.1918 14.7075 12.0795 14.63 12.0169L12.9615 10.6708C12.8785 10.6039 12.7565 10.6195 12.693 10.705L12.0437 11.5813C11.886 11.7942 11.6011 11.8681 11.3598 11.7589C9.14254 10.7554 7.36074 8.97366 6.35729 6.75637C6.24808 6.51504 6.32203 6.23023 6.53484 6.07252L7.41112 5.42312C7.49675 5.35967 7.51234 5.2377 7.44541 5.15475L6.09913 3.48597C6.03656 3.40841 5.92426 3.39335 5.84346 3.45167L4.51348 4.41179C3.86189 4.88219 3.63243 5.74682 3.96502 6.4784L4.38003 7.39127L4.38047 7.39225ZM10.6277 14.923C7.4057 13.5553 4.81417 11.033 3.35764 7.86066L3.35677 7.85879L2.94089 6.944C2.38657 5.72468 2.76901 4.28363 3.855 3.49964L5.18497 2.53952C5.75056 2.13122 6.53673 2.23667 6.97472 2.77959L8.32099 4.44838C8.78944 5.02901 8.68032 5.8828 8.08092 6.32698L7.57879 6.6991C8.42704 8.34486 9.77127 9.68916 11.4171 10.5373L11.7892 10.0352C12.2334 9.43588 13.0872 9.32676 13.6678 9.79521L15.3363 11.1412C15.8794 11.5794 15.9848 12.3659 15.5761 12.9315L14.6203 14.2543C13.8408 15.3331 12.4118 15.7179 11.196 15.1762L10.6277 14.923Z" fill="white"/>
</svg>
