<svg width="49" height="49" viewBox="0 0 49 49" fill="none" xmlns="http://www.w3.org/2000/svg">
<circle cx="24.5" cy="24.5" r="24.5" fill="#C40000"/>
<path d="M38.0385 10.4165C38.4153 10.0342 38.5899 9.60843 39.1603 9.46953C39.5015 9.44795 39.7673 9.60057 39.8449 9.95063C39.9403 10.3818 39.0756 11.0944 38.7416 11.5898C39.7633 12.8754 39.5882 14.5385 39.5882 16.0707L39.5887 28.5566C39.5888 30.03 39.6139 31.5081 39.5803 32.9809C39.9004 32.9685 40.3283 32.9469 40.4642 33.3183C40.794 34.2201 38.5032 33.9997 38.3113 33.8759C37.8282 33.5641 38.0138 33.0662 38.6411 32.965C38.6736 31.4129 38.6605 29.8503 38.6419 28.2979C38.6594 27.2395 38.647 26.179 38.647 25.1204L38.6476 15.9656C38.6476 14.9583 38.7549 13.8859 38.4051 12.9204C38.2805 13.5602 37.802 15.2284 37.2916 15.4988C36.6026 15.8637 36.4906 14.6574 36.3679 14.3827C35.9485 13.4446 34.9436 12.819 34.0491 12.4027C33.688 12.2348 32.8891 12.0538 33.1233 11.4957C33.3594 10.9332 34.3472 10.3099 34.9011 10.1004C36.1666 9.62193 36.9318 9.91873 38.0385 10.4165ZM35.8273 10.8492C35.2728 10.9305 34.7811 11.1471 34.3543 11.5125C35.2992 11.8681 36.1753 12.429 36.7933 13.2407C36.9267 13.4304 37.0452 13.6226 37.1491 13.8301C37.4041 13.0977 37.6164 12.3862 37.707 11.6136C37.382 10.9708 36.4846 10.7777 35.8273 10.8492Z" fill="#EBEBEB"/>
<path d="M10.0721 33.7809C9.00466 33.3767 8.28933 32.1427 8.27518 31.0391C8.25643 29.5774 9.19435 28.3076 10.461 27.6434C10.9989 27.3614 11.5477 27.2375 11.8886 26.6947C12.8255 25.2026 12.0417 23.2223 13.6927 21.5477C15.1701 20.0491 20.841 19.8685 22.8437 19.854C25.1365 19.8868 27.0335 19.9868 29.3421 20.3476C30.6375 20.5501 31.9969 20.698 32.8789 21.7861C34.1008 23.2935 33.5707 25.3673 34.6022 26.574C35.6535 27.8039 37.0896 27.5797 38.0138 29.5027C38.7084 30.948 38.3882 32.9022 36.8465 33.6362C36.865 34.1528 36.9361 34.7297 36.7154 35.2143C36.337 36.0457 35.3113 36.3255 34.511 35.9339C33.729 35.5511 33.3822 34.7437 33.112 33.9656C32.0414 33.9306 30.9614 33.9582 29.8898 33.9582L23.8292 33.9585L17.4501 33.9579C16.2278 33.9579 14.9931 33.9214 13.7725 33.9833C12.8904 36.9774 9.7612 36.7609 10.0721 33.7809ZM21.9921 20.8228C20.2801 20.8991 18.583 21.0359 16.8892 21.3027C15.9214 21.4552 14.9601 21.5584 14.2657 22.3222C13.345 23.335 13.4914 24.801 13.1413 26.0399C14.2403 24.8921 15.4095 24.7191 16.983 24.6823C18.555 24.6455 21.6067 25.069 21.9523 27.0219C22.6913 27.0179 23.4342 27.0358 24.1726 27.0096C24.2491 26.5789 24.418 26.2134 24.7606 25.9284C26.0887 24.8251 28.1531 24.5846 29.8288 24.739C31.6861 24.9102 32.5849 25.4403 33.3808 27.0281L33.7 27.0887C33.4189 26.5376 33.1937 25.9389 33.0537 25.3365C32.2791 22.0026 32.4867 21.8051 29.082 21.2653C26.9345 20.9249 24.1905 20.6732 21.9921 20.8228ZM17.1216 25.6326C15.491 25.7034 13.8688 25.7769 13.55 27.6174C14.9598 28.2104 16.077 27.973 17.4752 28.0179C17.9936 28.0093 22.3815 28.057 20.6829 26.6191C19.7492 25.8287 18.313 25.5966 17.1216 25.6326ZM28.8607 25.6546C27.7167 25.6856 26.1675 25.8369 25.3329 26.7146C25.1683 26.8878 24.9026 27.2857 25.1433 27.5027C25.52 27.8424 28.0132 27.9961 28.6041 28.0069C29.3687 28.0119 31.8024 28.0546 32.3042 27.549C32.5897 27.2611 32.2815 26.7293 32.0477 26.5166C31.338 25.8708 29.7995 25.6298 28.8607 25.6546ZM12.7363 27.3038L12.707 27.3196L12.7492 27.317L12.7717 27.2954L12.7363 27.3038ZM22.2337 27.977L21.8637 27.9915C20.3757 29.0589 18.5431 28.9572 16.7884 28.9555C15.5182 28.9542 13.6045 29.1505 12.7107 28.1153C11.3632 28.114 9.70275 28.7849 9.358 30.2096C10.2052 30.2469 11.0651 30.2174 11.9134 30.2174L21.6851 30.2168C22.612 30.217 23.5479 30.2434 24.4737 30.2037C25.3497 30.2405 26.2339 30.2167 27.111 30.2168L35.3109 30.2168C35.9797 30.2168 36.6629 30.2468 37.3294 30.2012C37.0274 29.3775 36.2675 28.7001 35.4869 28.3367C34.751 27.994 33.9643 28.1422 33.1878 28.0226C32.0534 29.4451 25.9046 29.0285 24.7104 28.3254C23.8329 27.8089 23.2884 27.909 22.2337 27.977ZM11.4732 31.1339C10.728 31.1193 9.95889 31.0893 9.21738 31.1666C9.47953 32.9765 10.6036 33.0135 12.0037 33.0141L29.7669 33.0139C31.6114 33.0139 33.4581 33.0346 35.3022 33.0091C36.5718 32.9688 37.2559 32.4356 37.4893 31.1742C36.1839 31.0827 34.862 31.1265 33.5534 31.1265L16.9026 31.1269C15.0947 31.1269 13.2806 31.0966 11.4732 31.1339ZM34.552 33.9475L34.0919 33.9607C34.3459 34.5543 34.7471 35.3066 35.5069 35.1289C36.0383 34.8663 35.9392 34.4506 35.9157 33.938C35.4625 33.9676 35.0058 33.9663 34.552 33.9475ZM10.9783 33.9636C10.9582 35.1982 11.6739 35.6319 12.3839 34.7006C12.5486 34.475 12.6904 34.2384 12.8245 33.9935C12.2122 33.9511 11.5918 33.9425 10.9783 33.9636Z" fill="#EBEBEB"/>
</svg>
