<svg width="49" height="49" viewBox="0 0 49 49" fill="none" xmlns="http://www.w3.org/2000/svg">
<circle cx="24.5" cy="24.5" r="24.5" fill="#C40000"/>
<path d="M22.8182 17.5523C22.6066 16.8058 22.7671 14.8587 23.6297 14.6485C23.8379 14.5978 24.1447 14.7527 24.1238 14.9945C24.0652 15.6737 23.3017 15.8915 23.6931 17.3182C23.8011 17.7123 24.1654 18.5473 23.4787 18.6349C22.1749 18.8012 21.0133 16.8411 20.8694 15.7098C20.676 14.1876 21.2731 12.9604 22.4346 12.0014C22.8577 11.6521 23.3562 11.3304 23.6929 10.8922C25.2009 8.92957 20.4765 7.12151 23.8009 6.7898C26.5999 6.51979 28.6745 10.6185 27.0142 13.0662C25.8486 14.7846 24.4612 15.4513 26.1705 17.7155C25.8336 14.3232 29.8688 14.2279 29.7371 11.9515C29.6651 10.7059 28.6882 10.7343 28.1808 10.2502C27.703 8.52034 31.3906 10.3283 30.4513 12.9386C29.7178 14.9774 26.6844 15.2429 27.0679 17.6036C27.1216 17.9342 27.4946 18.7539 26.8302 18.8431C26.4626 18.8925 25.9982 18.609 25.7215 18.3922C24.1073 17.1272 24.1538 15.1296 25.3803 13.6129C25.54 13.423 25.7149 13.2452 25.883 13.0627C27.7783 11.0043 26.1896 7.54377 23.7731 7.67881C23.8935 7.88665 24.073 8.06859 24.2192 8.25963C25.2938 9.66446 25.0619 11.0488 23.6889 12.15C22.5818 13.0379 21.6913 13.611 21.7079 15.2389C21.7177 16.2045 22.1477 16.8935 22.8182 17.5523Z" fill="#EBEBEB"/>
<path d="M21.2537 21.1535C21.1774 20.5103 21.014 19.5086 21.8437 19.3556C23.701 19.2831 26.0691 19.2743 27.9272 19.352C28.7978 19.3883 28.5907 20.5359 28.539 21.1248C29.0406 21.2935 29.5083 21.8145 29.5096 22.3584C29.5116 23.1727 28.7758 23.1082 28.4022 23.5043C27.8618 24.0772 28.0596 25.2865 28.6214 25.7736C28.9559 26.0636 29.7422 26.2626 30.1774 26.4627C32.7364 27.6394 35.0455 30.0705 35.1912 32.9982C35.2983 35.1497 33.9198 37.187 32.541 38.7081C31.4707 39.8888 30.0258 41.4867 28.3382 41.5687C27.9884 41.6034 27.6246 41.5865 27.2731 41.5867L23.2492 41.587C22.6164 41.5868 21.8413 41.6727 21.2334 41.4565C19.2872 40.7646 16.4219 37.4092 15.5938 35.6679C13.9224 32.1533 15.9577 28.732 19.1032 26.9465C19.8817 26.5047 21.1864 26.1808 21.4872 25.3138C21.6701 24.7867 21.6409 23.9897 21.3958 23.4863C19.6308 23.1958 19.8579 21.582 21.2537 21.1535ZM23.5046 20.2193C23.0311 20.2211 22.5505 20.2101 22.0784 20.2488C22.0818 20.5433 22.0915 20.8373 22.1032 21.1316C23.512 21.1897 24.9351 21.1513 26.3458 21.1509C26.7995 21.1506 27.254 21.1559 27.7076 21.144C27.7358 20.8425 27.734 20.5376 27.7317 20.235C26.3258 20.1796 24.9117 20.2416 23.5046 20.2193ZM21.622 22.0239C21.0475 22.0496 20.6599 22.4238 21.4297 22.5313C22.8342 22.7274 22.823 25.7373 21.5089 26.7071C21.01 27.0752 20.3077 27.3031 19.7518 27.6004C17.1701 28.9808 15.0261 31.768 16.1514 34.7693C16.8117 36.5305 19.5394 39.7383 21.3775 40.564C21.9061 40.8015 22.9924 40.7075 23.5682 40.7077L27.5099 40.7072C27.8594 40.7069 28.2207 40.7235 28.5676 40.678C29.9171 40.4634 32.1387 37.9238 32.9165 36.852C33.8591 35.5531 34.5253 34.0978 34.2614 32.4533C33.891 30.1446 31.9099 28.2196 29.8354 27.2783C28.9724 26.8866 28.0533 26.6818 27.5343 25.8073C26.9755 24.8657 27.1009 23.444 27.9912 22.7348C28.1341 22.6209 28.8851 22.3933 28.495 22.0823C28.3181 21.9412 27.3441 22.0125 27.1129 22.0125L22.9497 22.0132C22.5081 22.0133 22.0631 22.0037 21.622 22.0239Z" fill="#EBEBEB"/>
<path d="M25.1554 39.0699L25.0076 39.0792C22.4288 39.2315 20.7152 37.7405 19.2616 35.8071C18.7466 35.1221 18.7077 35.2342 18.1328 34.7159C17.3408 34.0016 17.4788 32.8844 18.1649 32.146C19.1717 31.0626 21.0857 30.8003 22.4992 30.7458C23.4297 30.7227 24.3957 30.7757 25.2927 31.0395C26.0161 31.2523 26.6452 31.6183 27.4212 31.6384C28.7814 31.6737 29.8662 30.8663 31.2882 31.1413C32.38 31.3525 33.0236 32.3649 32.8071 33.4467C32.6374 34.2947 32.0248 34.7956 31.3472 35.2539C32.1968 37.1437 30.3056 39.4802 28.4862 40.0624C27.1508 40.4084 26.063 40.1768 25.1554 39.0699ZM22.1737 31.6473C21.0393 31.7357 19.5126 31.9234 18.7239 32.8331C18.3331 33.2839 18.3987 33.8371 18.8555 34.2046C20.4474 35.4853 23.6187 33.1913 25.8027 33.796C26.3411 33.945 26.8254 34.2117 27.34 34.42C27.7008 34.3544 28.0766 34.3432 28.4423 34.3247C29.103 34.328 29.8306 34.4336 30.3366 34.9003C30.9471 34.3881 31.887 34.0318 31.9651 33.1197C32.025 32.4211 31.4967 32.0106 30.8402 31.9798C29.6151 31.9223 28.5705 32.6089 27.3117 32.5359C26.552 32.4918 25.9327 32.1671 25.2263 31.934C24.4847 31.6894 22.9929 31.5433 22.1737 31.6473ZM24.5324 34.5689C22.9952 34.7295 21.7993 35.4298 20.0959 35.4674C20.8096 36.3262 21.5239 37.172 22.5339 37.696C23.2619 38.0575 24.053 38.2671 24.8704 38.1536C25.0149 36.8593 25.1944 35.6971 26.4737 34.9679C25.8234 34.704 25.2443 34.5106 24.5324 34.5689ZM28.235 35.1924C26.6329 35.2976 25.3231 37.1538 25.9074 38.5597L25.9422 38.5846C26.1515 38.481 26.3566 38.2141 26.5209 38.0457C27.569 37.0054 28.3535 36.2752 29.4853 35.3597C29.0759 35.2274 28.6666 35.1623 28.235 35.1924ZM30.4262 35.8932C29.5473 36.2458 27.4196 38.3072 26.6706 39.1839C26.7831 39.2264 26.8888 39.2594 27.0072 39.2821C28.9434 39.5074 30.4541 38.0613 30.6655 36.1796C30.6878 35.9806 30.6334 35.8729 30.4262 35.8932Z" fill="#EBEBEB"/>
</svg>
