<svg width="49" height="49" viewBox="0 0 49 49" fill="none" xmlns="http://www.w3.org/2000/svg">
<circle cx="24.5" cy="24.5" r="24.5" fill="#C40000"/>
<path d="M24.6766 16.3864C26.1428 15.7832 26.4824 14.9246 28.5851 14.7609C30.8202 14.6499 32.5544 15.645 34.3688 16.8544C36.742 18.4362 38.9572 20.222 41.6934 21.1584C42.004 21.2647 42.5401 21.3391 42.7918 21.4829C43.6301 21.9624 42.408 23.3705 42.0228 23.886C41.3916 24.7309 40.9249 25.6484 40.3927 26.5554C39.0451 28.8514 37.1438 30.9487 34.8025 32.2502C34.4513 32.4455 33.5847 33.0554 33.1705 32.784C32.1929 32.1437 33.9692 31.5358 34.3447 31.3308C36.4226 30.1961 38.1394 28.3091 39.3464 26.302C39.9719 25.2617 40.4322 24.3371 41.1659 23.3468C39.9859 23.3542 37.6358 25.1997 36.3831 25.7722C35.4864 26.1821 34.5564 26.4822 33.6241 26.7973C26.8104 29.1007 23.2343 29.176 16.4211 26.8927C14.7452 26.3311 13.3877 25.8092 11.8831 24.8756C11.0016 24.3097 9.6441 23.4493 8.59644 23.3096C9.63528 24.744 10.3832 26.3693 11.4701 27.7631C14.9339 32.2046 19.6583 33.566 25.1614 33.5282C25.6037 33.5252 26.8741 33.3299 26.724 34.1344C26.6183 34.701 25.5861 34.5574 25.1901 34.5558C18.9726 34.5304 13.7239 32.9462 10.0314 27.5204C9.38754 26.5742 8.87415 25.5631 8.26877 24.5952C7.89677 24.0004 6.13195 22.1032 7.16173 21.4924C7.43592 21.3297 7.80833 21.2729 8.11302 21.1731C13.479 19.4158 17.6024 12.0584 23.6657 15.845C23.9989 16.0531 24.2938 16.2763 24.6766 16.3864ZM28.8361 15.749C28.0802 15.8123 27.3921 15.9869 26.7176 16.3437C24.168 17.6925 25.3945 17.9281 22.7553 16.4973C19.4735 14.7182 16.8837 16.6707 14.2439 18.6753C12.8292 19.7496 11.348 20.8704 9.7189 21.6028C9.25039 21.8135 8.74187 21.9699 8.29742 22.2283C9.54367 22.543 15.2148 22.4173 16.5136 22.2317C17.8047 22.0471 19.0563 21.6601 20.3544 21.5238C21.8451 21.3992 23 22.3823 24.4416 22.4602C25.5017 22.5174 26.4073 22.0758 27.4002 21.8001C29.652 21.1749 31.099 21.8726 33.2905 22.2062C34.1637 22.3392 35.0044 22.3809 35.8837 22.3772L39.2551 22.377C39.9767 22.3767 40.8411 22.4203 41.5352 22.2291C41.0791 22.0079 40.5989 21.8425 40.1331 21.6435C38.3747 20.8922 36.8485 19.8178 35.2894 18.7263C33.6952 17.6101 30.8942 15.533 28.8361 15.749ZM20.4164 22.5595C19.2279 22.6701 18.0772 23.0394 16.8953 23.2091C15.2142 23.4506 13.0415 23.4188 11.3048 23.3705C12.2412 23.8251 13.0844 24.4491 14.0341 24.8896C15.0454 25.3587 16.1084 25.7041 17.1621 26.0638C21.7488 27.6295 24.9785 28.013 29.6382 26.9286C31.5078 26.4622 34.4868 25.5818 36.1733 24.7378C36.9578 24.3451 37.643 23.7886 38.4174 23.3913C36.981 23.3347 35.5218 23.5116 34.0955 23.3517C32.4835 23.171 30.5912 22.5365 29.0883 22.5724C26.7941 22.6272 25.7069 24.093 22.9736 23.193C22.1866 22.9338 21.2653 22.443 20.4164 22.5595Z" fill="#EBEBEB"/>
<path d="M29.7937 18.7923C28.5942 18.753 27.9273 18.6612 26.7889 19.2289C23.1761 21.0306 23.323 18.7364 20.1616 18.7789C19.8431 18.7832 19.396 18.8492 19.1124 18.6656C18.6332 18.3553 18.9451 17.7913 19.5761 17.7246C20.4773 17.6648 21.6607 17.7948 22.4961 18.1156C23.228 18.3967 23.8267 18.9417 24.6532 18.9195C25.5682 18.8948 26.7256 17.9272 28.0101 17.7722C28.4204 17.7227 29.989 17.6549 30.2765 17.8982C30.6455 18.2105 30.3817 18.7638 29.7937 18.7923Z" fill="#EBEBEB"/>
<path d="M30.4411 41.5117C27.8769 41.6618 26.0782 39.1141 26.717 36.6347C27.0446 35.3631 28.2566 33.1711 28.9077 32.0043C29.1949 31.4896 29.5808 30.4584 30.1788 30.3562C30.7717 30.3554 31.1499 31.2954 31.4079 31.7208C32.2634 33.1313 33.9571 35.9357 34.0614 37.5348C34.2035 39.7133 32.5744 41.392 30.4411 41.5117ZM30.2264 31.7642C29.4512 33.1647 27.8864 35.8212 27.6345 37.3209C27.337 39.0924 28.7354 40.5128 30.4507 40.4903C31.9445 40.413 33.1296 39.141 33.0357 37.6314C32.9744 36.6455 31.0536 32.731 30.2264 31.7642Z" fill="#EBEBEB"/>
<path d="M30.6948 39.7172C28.6151 40.2632 27.4863 36.9364 28.7384 36.3481C29.7043 36.2706 29.1336 37.6413 29.4018 38.1194C29.8579 38.9328 30.3155 38.5584 30.809 38.7276C31.316 38.9016 31.2571 39.4867 30.6948 39.7172Z" fill="#EBEBEB"/>
</svg>
