<svg width="49" height="49" viewBox="0 0 49 49" fill="none" xmlns="http://www.w3.org/2000/svg">
<circle cx="24.5" cy="24.5" r="24.5" fill="#C40000"/>
<path d="M26.1762 18.7015C25.876 19.0325 25.3746 20.472 24.7318 19.9446C24.491 19.7471 24.3881 19.3956 24.2321 19.1329C23.2719 17.5161 20.9932 16.7999 20.785 14.7547C20.6348 13.278 21.7092 12.0614 23.1608 11.9245C23.8753 11.8917 24.4591 12.1656 25.0348 12.5694C26.1143 11.8816 27.2157 11.5888 28.3213 12.4706C29.2761 13.2322 29.4779 14.532 29.0067 15.6157C28.3788 17.0595 27.1306 17.5318 26.1762 18.7015ZM23.124 12.8897C22.2698 13.008 21.6042 13.8319 21.736 14.7004C21.9607 16.1814 24.15 17.1206 25.0557 18.6455C25.381 18.1168 25.7643 17.6429 26.2375 17.2383C27.0547 16.5159 28.2202 15.7712 28.299 14.5736C28.3562 13.7063 27.7647 12.9181 26.8678 12.8805C25.8214 12.8366 25.6709 13.6221 25.0259 13.6126C24.4473 13.604 24.1572 12.7653 23.124 12.8897Z" fill="#EBEBEB"/>
<path d="M15.9492 32.1577C12.724 31.8055 10.622 28.6701 9.93752 25.7477C9.46789 23.7424 9.64955 21.6753 10.4227 19.7613C10.8232 18.7701 10.8798 18.8271 11.8667 18.8276L12.9583 18.8233C14.9794 18.8611 17.0067 18.8285 19.0285 18.828L20.6193 18.8273C20.8529 18.8272 21.5998 18.7578 21.7853 18.9087C22.1173 19.1788 22.6255 20.8685 22.7414 21.3478C23.7292 25.4321 21.5944 31.5891 16.9117 32.1605C16.8796 33.4714 16.883 34.8002 16.912 36.1112C17.6397 36.1716 20.4898 36.4207 19.9972 37.6764C19.8839 37.965 19.5888 38.1026 19.3237 38.2192C17.8231 38.7686 14.2762 38.8832 13.1748 37.9807C12.8416 37.7076 12.7526 37.299 13.0593 36.9682C13.6291 36.3534 15.1434 36.1689 15.9608 36.1472C15.9379 35.6254 15.9474 35.1014 15.9477 34.5791L15.9492 32.1577ZM14.9774 19.7686C13.8029 19.768 12.6219 19.7425 11.448 19.7777C10.4414 22.1373 10.3324 24.5451 11.3038 26.97C12.2252 29.2697 14.8696 32.0516 17.5808 31.0856C19.1269 30.5621 20.3292 29.2023 21.0369 27.7707C22.2033 25.4112 22.3066 22.8922 21.4741 20.4339C21.3971 20.2067 21.315 19.9729 21.2 19.7621C19.1274 19.7949 17.0505 19.7689 14.9774 19.7686ZM15.7551 37.1049C15.1593 37.1458 14.5953 37.2576 14.0229 37.4252C15.0947 37.6162 16.1078 37.7113 17.1959 37.6555C17.7928 37.637 18.3656 37.5428 18.9487 37.4201C17.93 37.1713 16.8086 37.0101 15.7551 37.1049Z" fill="#EBEBEB"/>
<path d="M33.1898 32.1375C29.3073 31.6363 27.1039 27.6739 27.003 24.0332C26.9639 22.6249 27.3145 21.2466 27.8256 19.9449C28.2946 18.7501 28.3814 18.8281 29.5414 18.8278L31.0409 18.8277C32.8313 18.8278 34.6234 18.8449 36.4137 18.8235C37.1592 18.8382 38.2135 18.7558 38.921 18.8391C39.6844 18.9289 40.3056 21.9454 40.3744 22.5473C40.8289 26.5271 38.5213 31.6553 34.1125 32.1603C34.1358 33.4834 34.1059 34.808 34.1211 36.1314C34.9768 36.2059 36.6471 36.3092 37.1371 37.0636C37.3762 37.4318 37.1602 37.8547 36.8202 38.0652C35.5634 38.8436 32.6643 38.7115 31.2541 38.3817C30.6972 38.2199 29.5215 37.7088 30.2132 36.9713C30.8174 36.3272 32.3174 36.1611 33.1754 36.1491C33.2024 34.8126 33.1509 33.4737 33.1898 32.1375ZM31.5258 19.7685C30.6647 19.7683 29.8015 19.7554 28.9406 19.7736C28.4854 20.7782 28.0656 21.9084 28.0203 23.0212C30.8176 21.9624 31.2829 24.2063 33.1072 24.2941C34.4698 24.3597 34.9774 23.2484 36.0806 23.1947C37.7834 23.0759 38.1904 24.1319 39.4268 24.6406C39.6671 23.1714 39.2369 21.067 38.6021 19.7776C37.7784 19.7352 36.9382 19.7672 36.1129 19.7675L31.5258 19.7685ZM29.055 23.6964C28.6574 23.7531 28.2878 23.9238 27.991 24.1964C27.8991 29.3041 33.3953 33.9673 37.461 29.2464C38.446 28.077 38.8443 26.9923 39.295 25.5943C38.5519 25.3825 38.2507 25.041 37.6418 24.6133C36.3366 23.6967 35.8802 24.2195 34.8493 24.8172C32.0593 26.4348 30.8907 23.4709 29.055 23.6964ZM32.9185 37.1046C32.3221 37.1477 31.7671 37.2638 31.1969 37.4432C32.2596 37.6364 33.342 37.761 34.4225 37.6631C34.9783 37.6298 35.5465 37.5774 36.0841 37.4235C35.0209 37.1696 34.0294 36.9852 32.9185 37.1046Z" fill="#EBEBEB"/>
<path d="M19.7201 26.5008C17.6325 26.5989 17.5263 23.7248 19.4715 23.5044C21.3852 23.3407 21.7808 26.1866 19.7201 26.5008ZM19.4836 24.4666C18.7714 24.7485 18.9305 25.5695 19.7152 25.5326C19.995 25.4163 20.0824 25.2547 20.1602 24.9838C20.071 24.5991 19.8754 24.4509 19.4836 24.4666Z" fill="#EBEBEB"/>
<path d="M14.0201 26.6845C12.1296 26.9431 11.563 24.1207 13.668 23.7372C15.4823 23.5229 16.0842 26.2123 14.0201 26.6845ZM13.7253 24.7012C13.0998 24.9887 13.2203 25.8131 13.9606 25.7203C14.5918 25.4889 14.4025 24.6392 13.7253 24.7012Z" fill="#EBEBEB"/>
<path d="M34.5014 29.3538C32.5558 29.4994 32.2067 26.5419 34.2636 26.2965C36.2458 26.2064 36.5528 29.0979 34.5014 29.3538ZM34.2703 27.2812C33.5181 27.52 33.7821 28.4808 34.492 28.3935C34.7672 28.2674 34.8965 28.0863 34.9617 27.8012C34.8509 27.431 34.6573 27.2676 34.2703 27.2812Z" fill="#EBEBEB"/>
<path d="M17.0668 30.2639C15.0535 30.2923 14.9004 27.4587 16.9626 27.2645C18.6853 27.1057 19.215 30.0375 17.0668 30.2639ZM16.8872 28.2261C16.2311 28.4643 16.3628 29.4091 17.1313 29.2634C17.7561 28.993 17.6253 28.168 16.8872 28.2261Z" fill="#EBEBEB"/>
</svg>
