<svg width="49" height="49" viewBox="0 0 49 49" fill="none" xmlns="http://www.w3.org/2000/svg">
<circle cx="24.5" cy="24.5" r="24.5" fill="#C40000"/>
<path d="M29.8168 16.74C30.3463 16.121 31.0232 15.5073 31.6013 14.9211L35.3981 11.0869C36.3035 10.1721 37.1882 9.23928 38.1018 8.33212C38.7445 7.694 39.1838 7.0456 40.154 6.96165C41.1476 6.91585 41.9629 7.68995 41.9505 8.68402C41.9378 9.70358 41.0599 10.2989 40.4025 10.9643L38.1848 13.2101C36.2454 15.1553 34.3695 17.166 32.3908 19.0718C33.5683 20.6739 34.4249 21.6085 35.0332 23.6633C36.0134 26.9738 33.7631 29.3702 31.6782 31.614C30.5156 32.8651 29.4113 34.16 28.4288 35.5581C27.2976 37.1677 25.7037 39.7518 23.687 40.3359C22.372 40.7168 22.0194 40.0088 21.7021 38.9318C21.3825 37.8471 19.5742 38.4172 19.2092 36.8941C19.164 36.7057 19.1473 36.5059 19.0876 36.3218C18.7723 35.3497 17.3586 36.1778 16.829 34.4177C16.4847 32.9142 15.0555 33.9775 14.5577 32.3167C14.1053 30.8073 14.1162 31.5625 13.0396 31.0275C12.479 30.749 12.3153 30.1742 12.1241 29.63C11.7268 28.4993 10.5928 29.7473 9.79372 27.4038C9.56514 26.7334 8.99372 26.8061 8.46054 26.5408C7.89599 26.2598 7.53769 25.5852 7.8722 24.9958C8.63101 23.6589 11.3336 22.865 12.6658 22.3553C15.5575 21.2489 17.1908 20.0988 19.5053 17.9488C23.2344 14.4848 25.1845 14.1698 29.8168 16.74ZM40.0669 8.05394C39.6839 8.20886 39.4295 8.53171 39.146 8.8194L31.4603 16.594C31.038 17.0169 30.4612 17.7704 29.8765 17.9476C29.3221 17.7929 28.8368 17.4325 28.3305 17.1659C23.8424 14.8023 22.3207 16.8897 19.2267 19.6578C17.0434 21.6112 14.9647 22.6784 12.218 23.6702C11.5991 23.8937 9.09238 24.6989 8.92314 25.4685C8.88154 25.6577 9.52569 25.7722 9.6634 25.8305C10.8955 26.3517 10.6249 27.2645 11.1863 27.7842C11.6336 28.1983 12.4348 27.8084 13.057 29.0897C13.354 29.7013 13.2119 30.0148 13.9475 30.1891C15.6558 30.5937 15.3045 31.8797 15.7856 32.3072C16.0893 32.5772 16.7406 32.3833 17.3481 33.0719C17.7472 33.5388 17.8691 34.359 18.0884 34.5488C18.2474 34.6865 18.6063 34.6801 18.8045 34.7281C20.2274 35.0733 20.1045 36.723 20.4446 36.9897C20.6401 37.143 20.9825 37.1136 21.2178 37.1663C22.8228 37.5261 22.7176 39.3135 23.0548 39.3439C24.4141 39.4665 26.5318 36.3789 27.1856 35.4447C28.3032 33.8478 29.4879 32.3426 30.8359 30.933C32.1451 29.5638 34.1078 27.5262 34.2143 25.5264C34.3776 22.4566 31.0694 19.4869 31.059 19.1356C31.0486 18.7828 31.8435 18.1288 32.0711 17.8929L39.9025 9.94596C40.1705 9.68192 40.6198 9.3152 40.7973 8.98925C41.0805 8.46897 40.655 8.00017 40.0669 8.05394Z" fill="#EBEBEB"/>
<path d="M30.0666 24.323C29.5529 24.0497 29.1122 23.5368 28.701 23.1361L27.367 21.8304C27.0123 21.4826 25.5914 20.3158 25.5531 19.8411C25.4874 19.023 26.5809 18.6136 27.2279 18.5638C29.3923 18.5016 32.243 21.2221 31.559 23.3755C31.3633 23.9914 30.7505 24.5621 30.0666 24.323ZM27.099 19.6784C26.9791 19.6961 26.8698 19.7228 26.7544 19.7589C27.9539 20.8692 29.1522 22.1965 30.3635 23.2413L30.3937 23.2444C31.0401 22.612 29.913 21.0957 29.4594 20.6647C28.7778 20.0168 28.0666 19.6052 27.099 19.6784Z" fill="#EBEBEB"/>
<path d="M14.7037 26.7888C13.9212 26.8183 13.5743 25.7026 14.9034 25.6676C16.3171 25.6304 17.386 25.2004 18.5464 24.4154C18.8286 24.2245 19.0589 23.9415 19.3712 23.8003C19.7678 23.7662 19.9923 23.9275 20.0891 24.3161C19.9989 24.7214 19.6195 24.9716 19.3125 25.2132C18.0073 26.2402 16.3521 26.7438 14.7037 26.7888Z" fill="#EBEBEB"/>
<path d="M17.1417 29.1862C16.6986 29.2097 16.2917 28.8752 16.5184 28.3999C16.7168 27.9839 17.3129 28.0654 17.6888 28.0306C19.4373 27.8687 21.1013 26.8871 22.1287 25.4629C22.3135 25.2068 22.41 24.9093 22.7227 24.7899C23.052 24.7665 23.3826 24.9245 23.406 25.2906C23.4302 25.6688 22.8984 26.2467 22.6614 26.5309C21.1384 28.3567 19.3937 28.9843 17.1417 29.1862Z" fill="#EBEBEB"/>
<path d="M20.0372 31.5929C19.6161 31.6521 19.1437 31.3965 19.3347 30.8985C19.5088 30.4443 20.0709 30.4686 20.4692 30.3626C21.6581 30.0463 22.7705 29.3817 23.5965 28.4674C23.8709 28.1637 24.0818 27.6944 24.4631 27.5186C26.5011 27.3395 23.7058 30.9695 20.0372 31.5929Z" fill="#EBEBEB"/>
<path d="M22.4486 34.3841C21.9636 34.4073 21.6606 33.911 21.9767 33.4995C22.1107 33.325 22.9757 33.021 23.2179 32.8885C23.8392 32.5489 24.3905 32.1198 24.8842 31.6134C25.1363 31.3548 25.3646 30.9504 25.7472 30.8918C26.257 30.8996 26.51 31.3439 26.2018 31.7879C25.5726 32.6945 23.5426 34.1816 22.4486 34.3841Z" fill="#EBEBEB"/>
<path d="M32.0676 39.4165C31.0294 39.4143 30.1074 38.8866 29.6895 37.9025C29.4032 37.2283 29.6025 36.6044 29.8669 35.959C30.1444 35.2817 31.3082 32.7227 31.943 32.4566C32.6946 32.4359 34.0396 35.6475 34.2735 36.3155C34.8589 37.9877 33.7563 39.3348 32.0676 39.4165ZM31.9972 34.1645C31.3081 35.1994 29.4186 38.374 32.0541 38.3423C33.1088 38.3293 33.5887 37.5776 33.2311 36.5903C33.0903 36.2019 32.2481 34.3504 31.9972 34.1645Z" fill="#EBEBEB"/>
</svg>
