<svg width="49" height="49" viewBox="0 0 49 49" fill="none" xmlns="http://www.w3.org/2000/svg">
<circle cx="24.5" cy="24.5" r="24.5" fill="#C40000"/>
<path d="M8.97265 23.4253C7.82301 22.2913 7.13085 20.5898 8.09694 19.1163C9.61471 16.8015 14.119 16.7104 16.596 16.1903C19.3364 15.615 21.3237 14.6661 23.411 12.798C23.9182 12.3441 24.4394 11.7611 25.1352 11.62C26.0308 11.533 28.4178 12.0389 29.2549 12.3016C31.1887 12.9084 32.8948 14.081 34.7836 14.8077C35.5061 15.0857 36.2692 15.2921 37.0232 15.4652C37.9115 15.6691 41.7654 16.2233 41.6882 17.5119C41.6485 18.1756 40.1851 18.9029 39.7122 19.3365C39.4198 20.1554 38.8048 21.7467 39.6625 22.2588C39.8587 22.3759 40.0721 22.4612 40.2534 22.6031C41.2821 23.408 41.1626 25.1294 39.9833 25.7183C39.8367 25.7916 39.6736 25.8395 39.5206 25.8986C39.3658 26.741 38.8518 27.9023 39.7737 28.508C39.9794 28.6432 40.1993 28.7389 40.3808 28.9106C41.0725 29.565 41.1409 30.7587 40.4594 31.4481C40.0865 31.8253 39.0359 32.215 38.5308 32.4431C35.5044 33.8098 32.4232 35.0558 29.2728 36.108C28.2933 36.4352 27.3768 36.7545 26.3297 36.7528C24.8566 36.7385 23.501 36.0343 22.1729 35.469L13.7335 31.7855C11.8393 30.9529 9.73969 30.1843 8.4514 28.4706C7.24162 26.8614 7.2824 24.6852 8.97265 23.4253ZM25.1712 12.6077C24.7668 12.8408 24.2717 13.3883 23.9021 13.7107C21.7134 15.6193 19.485 16.6149 16.6537 17.1944C14.7032 17.5937 9.31617 17.8507 8.68726 20.1922C8.4285 21.1556 9.02474 22.1629 9.73587 22.7804C9.9252 22.9448 10.1861 23.0983 10.3266 23.3069C10.6845 23.838 9.89303 23.9994 9.65446 24.1288C8.53344 24.7372 8.35295 26.3402 8.93869 27.4079C10.0563 29.4451 14.0504 30.8752 16.2769 31.8257L23.9065 35.1044C23.1759 32.7779 24.4075 30.8041 26.4662 29.7207C24.1883 28.6051 22.0091 27.6566 19.7029 26.6112L13.2658 23.6723C12.9646 23.5333 12.2155 23.3007 12.0783 22.9664C11.9807 22.7285 12.1525 22.4154 12.3873 22.3327C12.7924 22.1902 13.4579 22.6577 13.8079 22.8208L20.1316 25.6868C21.5767 26.3387 23.009 27.004 24.478 27.6022C24.3507 23.3129 28.3601 22.8669 31.6064 22.1607C34.8375 21.458 38.0156 19.6414 40.5535 17.5206C39.5772 16.8637 37.7488 16.6612 36.5956 16.39C35.8427 16.2129 35.0957 15.978 34.3696 15.7116C32.4978 15.025 30.8406 13.85 28.9246 13.2587C27.7724 12.9031 26.3719 12.671 25.1712 12.6077ZM38.3355 20.3564C35.6864 22.0724 33.8084 22.7243 30.7991 23.3548C28.743 23.7856 26.0575 24.1599 25.5244 26.6159C25.1477 28.3519 26.3813 28.8097 27.9407 29.105C28.5731 29.2248 29.0614 28.9511 29.6419 28.7415C32.701 27.6374 35.9493 26.5593 38.8629 25.1432C39.2573 24.9758 39.7411 24.8126 39.9126 24.3781C40.061 24.0021 39.9187 23.4966 39.5124 23.3506C39.1349 23.2149 38.1615 23.7162 37.8021 23.8526L30.3792 26.6667C29.9002 26.8432 28.0636 27.5373 27.5867 27.5466C27.2095 27.5539 26.9362 27.2225 27.0678 26.8627C27.231 26.4168 27.993 26.4194 28.3706 26.3072C29.0062 26.1186 29.6312 25.8869 30.2523 25.6556L37.3901 22.9347C37.7606 22.7878 38.1276 22.6253 38.5016 22.4887C38.2779 21.942 38.157 21.3759 38.2582 20.7851C38.2778 20.6704 38.3957 20.455 38.3355 20.3564ZM38.3633 26.4815C37.8509 26.7175 37.3182 26.9114 36.7926 27.1159L34.7015 27.9273C32.7204 28.6769 30.7684 29.4796 28.7224 30.0471C28.0035 30.2466 27.2783 30.3795 26.6233 30.7598C25.3068 31.5243 24.1802 33.2298 24.8834 34.7592C25.6833 36.4989 27.897 35.5274 29.2266 35.0747C32.1042 34.0949 34.9338 32.9515 37.7106 31.7165C38.3046 31.4523 38.9253 31.2237 39.4963 30.9117C40.1993 30.463 40.0429 29.5866 39.4128 29.4604C39.032 29.3842 38.282 29.7503 37.9287 29.8823C34.9253 31.004 31.8811 32.2695 28.9546 33.5715C28.3079 33.8592 27.6422 34.1205 27.0103 34.4387C26.7092 34.5903 26.2641 34.8943 26.0012 34.5264C25.4796 33.7967 26.4522 33.6066 26.9021 33.409L28.7756 32.5642C31.9861 31.1381 35.2369 29.8035 38.5353 28.5935C38.2961 28.1248 38.2101 27.6294 38.2684 27.1053C38.2809 26.9926 38.4432 26.5269 38.3633 26.4815Z" fill="#EBEBEB"/>
<path d="M22.4662 30.8288C22.032 30.8869 20.4034 30.1052 19.9321 29.9175L12.4686 26.9497C12.1124 26.8122 10.6643 26.4019 10.5515 26.0121C10.4583 25.69 10.6272 25.4385 10.9343 25.3485C11.1028 25.3414 11.238 25.38 11.3931 25.4403L20.9693 29.2492C21.3537 29.3994 22.6803 29.7756 22.8438 30.1805C22.9612 30.471 22.7215 30.7304 22.4662 30.8288Z" fill="#EBEBEB"/>
</svg>
